<?xml version="1.0" encoding="UTF-8" standalone="no"?>
<svg
   viewBox="103 41 937.63281 365.45663"
   width="937.63281"
   height="365.45663"
   role="img"
   aria-label="Scoot Keyboard physical layout"
   version="1.1"
   id="svg49"
   sodipodi:docname="scoot-layout.svg"
   inkscape:version="1.4.4 (dcaf3e7d9e, 2026-05-05)"
   xmlns:inkscape="http://www.inkscape.org/namespaces/inkscape"
   xmlns:sodipodi="http://sodipodi.sourceforge.net/DTD/sodipodi-0.dtd"
   xmlns="http://www.w3.org/2000/svg"
   xmlns:svg="http://www.w3.org/2000/svg">
  <defs
     id="defs49" />
  <sodipodi:namedview
     id="namedview49"
     pagecolor="#ffffff"
     bordercolor="#000000"
     borderopacity="0.25"
     inkscape:showpageshadow="2"
     inkscape:pageopacity="0.0"
     inkscape:pagecheckerboard="0"
     inkscape:deskcolor="#d1d1d1"
     showguides="true"
     inkscape:zoom="1"
     inkscape:cx="268.5"
     inkscape:cy="283"
     inkscape:window-width="1900"
     inkscape:window-height="1028"
     inkscape:window-x="0"
     inkscape:window-y="0"
     inkscape:window-maximized="1"
     inkscape:current-layer="svg49"
     inkscape:document-units="mm" />
  <style
     id="style1">
  .canvas { fill: #262c36; }
  .cap { stroke: #30363d; stroke-width: 1; }
  .enc { stroke: #30363d; stroke-width: 1; }
  .enc-tread { stroke: rgba(255,255,255,0.35); stroke-width: 2; stroke-linecap: round; }
  .chip rect { stroke: #30363d; stroke-width: 1; }
  .chip text { fill: #fff; font: 600 12.5px system-ui, sans-serif; text-anchor: middle; dominant-baseline: central; }
</style>
  <g
     id="g50-5"
     transform="translate(144,470.15823)">
    <g
       id="g24-49" />
    <g
       id="g25-5" />
    <g
       id="g26-4" />
    <g
       id="g27-9" />
    <g
       id="g28-5" />
    <g
       id="g29-3" />
    <g
       id="g30-7" />
    <g
       id="g31-8" />
    <g
       id="g32-9" />
    <g
       id="g33-7" />
    <g
       id="g34-2" />
    <g
       id="g35-3" />
    <g
       id="g36-9" />
    <g
       id="g37-2" />
    <g
       id="g38-1" />
    <g
       id="g39-6" />
    <g
       id="g40-12" />
    <g
       id="g41-7" />
    <g
       transform="rotate(-13,806.4,318.8)"
       id="g42-11" />
    <g
       transform="rotate(-26,736.4,342.2)"
       id="g43-0" />
    <g
       transform="rotate(-40,664,371.4)"
       id="g44-6" />
  </g>
  <g
     id="g28-68-7"
     transform="translate(-226.50776,398.15823)" />
  <g
     id="g50-1"
     transform="translate(77.231749,520.35628)">
    <g
       id="g24-9" />
    <g
       id="g25-9" />
    <g
       id="g26-3" />
    <g
       id="g27-0" />
    <g
       id="g28-6" />
    <g
       id="g29-4" />
    <g
       id="g30-0" />
    <g
       id="g31-62" />
    <g
       id="g32-7" />
    <g
       id="g33-6" />
    <g
       id="g34-8" />
    <g
       id="g35-2" />
    <g
       id="g36-29" />
    <g
       id="g37-6" />
    <g
       id="g38-27" />
    <g
       id="g39-1" />
    <g
       id="g40-1" />
    <g
       id="g41-9" />
    <g
       transform="rotate(-13,806.4,318.8)"
       id="g42-1" />
    <g
       transform="rotate(-26,736.4,342.2)"
       id="g43-9" />
    <g
       transform="rotate(-40,664,371.4)"
       id="g44-0" />
  </g>
  <g
     id="g39-0-5"
     transform="translate(-5.2760114,520.35628)" />
  <g
     id="g50-7"
     transform="translate(-10.000002,437.72309)">
    <g
       id="g24-7" />
    <g
       id="g25-4" />
    <g
       id="g26-1" />
    <g
       id="g27-8" />
    <g
       id="g28-3" />
    <g
       id="g29-8" />
    <g
       id="g30-21" />
    <g
       id="g31-5" />
    <g
       id="g32-1" />
    <g
       id="g33-8" />
    <g
       id="g34-0" />
    <g
       id="g35-4" />
    <g
       id="g36-2" />
    <g
       id="g37-8" />
    <g
       id="g38-28" />
    <g
       id="g39-7" />
    <g
       id="g40-40" />
    <g
       id="g41-2" />
    <g
       transform="rotate(-13,806.4,318.8)"
       id="g42-9" />
    <g
       transform="rotate(-26,736.4,342.2)"
       id="g43-8" />
    <g
       transform="rotate(-40,664,371.4)"
       id="g44-3" />
  </g>
  <g
     id="g39-0-1"
     transform="translate(-93.007762,437.72309)" />
  <g
     id="g24-4"
     transform="translate(-127.99224,-43.341767)" />
  <g
     id="g25-8"
     transform="translate(-127.99224,-43.341767)" />
  <g
     id="g26-5"
     transform="translate(-127.99224,-43.341767)" />
  <g
     id="g27-3"
     transform="translate(-127.99224,-43.341767)" />
  <g
     id="g28-1"
     transform="translate(-127.99224,-43.341767)" />
  <g
     id="g29-6"
     transform="translate(-127.99224,-43.341767)" />
  <g
     id="g30-2"
     transform="translate(-127.99224,-43.341767)" />
  <g
     id="g31-6"
     transform="translate(-127.99224,-43.341767)" />
  <g
     id="g32-5"
     transform="translate(-127.99224,-43.341767)" />
  <g
     id="g33-4"
     transform="translate(-127.99224,-43.341767)" />
  <g
     id="g34-6"
     transform="translate(-127.99224,-43.341767)" />
  <g
     id="g35-6"
     transform="translate(-127.99224,-43.341767)" />
  <g
     id="g36-3"
     transform="translate(-127.99224,-43.341767)" />
  <g
     id="g37-4"
     transform="translate(-127.99224,-43.341767)" />
  <g
     id="g38-2"
     transform="translate(-127.99224,-43.341767)" />
  <g
     id="g39-4"
     transform="translate(-127.99224,-43.341767)" />
  <g
     id="g40-4"
     transform="translate(-127.99224,-43.341767)" />
  <g
     id="g41-3"
     transform="translate(-127.99224,-43.341767)" />
  <g
     transform="rotate(-13,552.20098,858.81585)"
     id="g42-7" />
  <g
     transform="rotate(-26,578.53697,597.72677)"
     id="g43-6" />
  <g
     transform="rotate(-40,540.46361,525.55701)"
     id="g44-8" />
  <rect
     class="canvas"
     x="103"
     y="41"
     width="937.63281"
     height="365.45663"
     id="rect1"
     style="fill:#212830;fill-opacity:1;stroke-width:0.848366" />
  <g
     id="g1">
    <path
       id="path27"
       style="baseline-shift:baseline;display:inline;overflow:visible;vector-effect:none;fill:#30363d;paint-order:markers stroke fill;enable-background:accumulate;stop-color:#000000"
       d="m 830.75,41.00003 c -7.96505,0 -14.57462,6.012797 -15.66016,13.699219 H 808.75 787.37891 758.75 c -6.36572,0 -11.84692,3.832699 -14.37305,9.300781 H 736.75 730.10352 686.75 656.3125 634.64453 603.1875 c -8.95107,0 -16.32031,7.366329 -16.32031,16.318359 v 104.339841 5.78516 12.38672 7.20312 20.79688 46.15624 h 0.002 c 0.021,1.14779 0.32456,2.30856 0.94141,3.37696 l 10.98633,19.0293 0.008,0.0488 1.34375,2.29297 0.0547,0.0918 5.16602,8.94726 7.4043,12.82422 0.0371,0.0664 c 0.0133,0.0231 0.0274,0.0455 0.041,0.0684 l 3.14258,5.44531 3.41016,5.90625 0.94726,1.64063 0.002,0.002 10.04882,17.40625 1.99805,3.46094 8.39649,14.54297 14.63867,25.35546 0.60156,1.04297 c 3.26729,5.65914 9.56701,8.54923 15.7168,7.80664 2.04982,-0.24752 4.09256,-0.90333 5.97851,-1.99218 l 25.45117,-14.69532 h -0.12109 l 1.01758,-0.52343 C 732.85,374.34548 782.59007,353.86907 838.4827,352.46298 h 12.23047 c 8.71122,0 15.88281,-7.16864 15.88281,-15.88086 v -18.69141 -11.67969 l 0.0586,-0.0195 a 29.841068,29.841068 0 0 1 -0.10352,-2.46875 29.841068,29.841068 0 0 1 29.8418,-29.84179 29.841068,29.841068 0 0 1 14.99023,4.07031 l 0.01,-0.0254 0.28906,0.21875 a 29.841068,29.841068 0 0 1 5.39453,4.07031 h 0.002 l 47.59571,35.9043 c 2.74955,2.27285 6.26547,3.64453 10.07617,3.64453 h 50.00004 c 8.7122,0 15.8828,-7.17057 15.8828,-15.88281 v -19.28125 -30.71875 -22 -50 -22 -25.89454 -24.10546 c 0,-8.71225 -7.1716,-15.880857 -15.8828,-15.880857 H 989.5 974.75 968.63281 V 64.082061 c 0,-8.712227 -7.17058,-15.882812 -15.88281,-15.882812 h -50 -8.89062 C 891.00188,43.908433 886.24422,41.00003 880.75,41.00003 Z" />
    <rect
       class="cap"
       x="967.74988"
       y="104.88174"
       width="64"
       height="64"
       rx="7"
       fill="#151b23"
       id="rect27"
       style="stroke:none" />
    <rect
       class="cap"
       x="967.74988"
       y="176.88174"
       width="64"
       height="64"
       rx="7"
       fill="#151b23"
       id="rect28"
       style="stroke:none" />
    <rect
       class="cap"
       x="967.74988"
       y="248.88174"
       width="64"
       height="64"
       rx="7"
       fill="#151b23"
       id="rect29"
       style="stroke:none" />
    <rect
       class="cap"
       x="895.74988"
       y="57.08149"
       width="64"
       height="64"
       rx="7"
       fill="#151b23"
       id="rect30"
       style="stroke:none" />
    <rect
       class="cap"
       x="895.74988"
       y="129.08148"
       width="64"
       height="64"
       rx="7"
       fill="#151b23"
       id="rect31"
       style="stroke:none" />
    <rect
       class="cap"
       x="895.74988"
       y="201.08148"
       width="64"
       height="64"
       rx="7"
       fill="#151b23"
       id="rect32"
       style="stroke:none" />
    <rect
       class="cap"
       x="823.74988"
       y="49.881489"
       width="64"
       height="64"
       rx="7"
       fill="#151b23"
       id="rect33"
       style="stroke:none" />
    <rect
       class="cap"
       x="823.74988"
       y="121.88148"
       width="64"
       height="64"
       rx="7"
       fill="#151b23"
       id="rect34"
       style="stroke:none" />
    <rect
       class="cap"
       x="823.74988"
       y="193.88148"
       width="64"
       height="64"
       rx="7"
       fill="#151b23"
       id="rect35"
       style="stroke:none" />
    <rect
       class="cap"
       x="751.74988"
       y="63.581482"
       width="64"
       height="64"
       rx="7"
       fill="#151b23"
       id="rect36"
       style="stroke:none" />
    <rect
       class="cap"
       x="751.74988"
       y="135.58148"
       width="64"
       height="64"
       rx="7"
       fill="#151b23"
       id="rect37"
       style="stroke:none" />
    <rect
       class="cap"
       x="793.71375"
       y="279.58148"
       width="64"
       height="64"
       rx="7"
       fill="#151b23"
       id="rect38-6"
       style="stroke:none;stroke-width:1" />
    <rect
       class="cap"
       x="586.30927"
       y="500.91336"
       width="64"
       height="64"
       rx="7"
       fill="#151b23"
       id="rect38-6-2"
       style="stroke:none;stroke-width:1"
       transform="rotate(-17.298435)" />
    <rect
       class="cap"
       x="377.75986"
       y="616.16071"
       width="64"
       height="64"
       rx="7"
       fill="#151b23"
       id="rect38-6-2-3"
       style="stroke:none;stroke-width:1"
       transform="rotate(-30)" />
    <rect
       class="cap"
       x="377.75986"
       y="544.16071"
       width="64"
       height="64"
       rx="7"
       fill="#151b23"
       id="rect38-6-2-3-0"
       style="fill:#946cdc;fill-opacity:1;stroke:none;stroke-width:1"
       transform="rotate(-30)" />
    <rect
       class="cap"
       x="679.74988"
       y="72.881485"
       width="64"
       height="64"
       rx="7"
       fill="#151b23"
       id="rect39"
       style="stroke:none" />
    <rect
       class="cap"
       x="679.74988"
       y="144.88148"
       width="64"
       height="64"
       rx="7"
       fill="#151b23"
       id="rect40"
       style="stroke:none" />
    <rect
       class="cap"
       x="751.74988"
       y="207.58148"
       width="64"
       height="64"
       rx="7"
       fill="#151b23"
       id="rect38"
       style="stroke:none" />
    <rect
       class="cap"
       x="679.74988"
       y="216.88148"
       width="64"
       height="64"
       rx="7"
       fill="#151b23"
       id="rect41"
       style="stroke:none" />
    <path
       id="rect36-4-8-3"
       style="fill:#347d39;stroke:none;stroke-width:1.44055"
       class="cap"
       d="m 603.18738,72.881483 h 53.125 c 4.12037,0 7.4375,3.317125 7.4375,7.4375 V 190.44398 c 0,4.12038 -3.31713,7.4375 -7.4375,7.4375 h -53.125 c -4.12038,0 -7.4375,-3.31712 -7.4375,-7.4375 V 80.318983 c 0,-4.120375 3.31712,-7.4375 7.4375,-7.4375 z" />
    <rect
       x="205.80336"
       y="-615.74988"
       width="34"
       height="20"
       rx="3"
       id="rect-usbc-right"
       style="fill:#478be6;fill-opacity:1;stroke:none"
       transform="rotate(90)" />
    <rect
       x="205.80336"
       y="-637.89026"
       width="24.277203"
       height="14.280707"
       rx="2.1421061"
       id="rect-usbc-right-6"
       style="fill:#ea5c53;fill-opacity:1;stroke:none;stroke-width:0.714035"
       transform="rotate(90)" />  </g>
  <g
     id="g1-6"
     transform="matrix(-1,0,0,1,1143.6334,-2.85e-5)">
    <path
       id="path27-7"
       style="baseline-shift:baseline;display:inline;overflow:visible;vector-effect:none;fill:#30363d;paint-order:markers stroke fill;enable-background:accumulate;stop-color:#000000"
       d="m 830.75,41.00003 c -7.96505,0 -14.57462,6.012797 -15.66016,13.699219 H 808.75 787.37891 758.75 c -6.36572,0 -11.84692,3.832699 -14.37305,9.300781 H 736.75 730.10352 686.75 656.3125 634.64453 603.1875 c -8.95107,0 -16.32031,7.366329 -16.32031,16.318359 v 104.339841 5.78516 12.38672 7.20312 20.79688 46.15624 h 0.002 c 0.021,1.14779 0.32456,2.30856 0.94141,3.37696 l 10.98633,19.0293 0.008,0.0488 1.34375,2.29297 0.0547,0.0918 5.16602,8.94726 7.4043,12.82422 0.0371,0.0664 c 0.0133,0.0231 0.0274,0.0455 0.041,0.0684 l 3.14258,5.44531 3.41016,5.90625 0.94726,1.64063 0.002,0.002 10.04882,17.40625 1.99805,3.46094 8.39649,14.54297 14.63867,25.35546 0.60156,1.04297 c 3.26729,5.65914 9.56701,8.54923 15.7168,7.80664 2.04982,-0.24752 4.09256,-0.90333 5.97851,-1.99218 l 25.45117,-14.69532 h -0.12109 l 1.01758,-0.52343 C 732.85,374.34548 782.59007,353.86907 838.4827,352.46298 h 12.23047 c 8.71122,0 15.88281,-7.16864 15.88281,-15.88086 v -18.69141 -11.67969 l 0.0586,-0.0195 a 29.841068,29.841068 0 0 1 -0.10352,-2.46875 29.841068,29.841068 0 0 1 29.8418,-29.84179 29.841068,29.841068 0 0 1 14.99023,4.07031 l 0.01,-0.0254 0.28906,0.21875 a 29.841068,29.841068 0 0 1 5.39453,4.07031 h 0.002 l 47.59571,35.9043 c 2.74955,2.27285 6.26547,3.64453 10.07617,3.64453 h 50.00004 c 8.7122,0 15.8828,-7.17057 15.8828,-15.88281 v -19.28125 -30.71875 -22 -50 -22 -25.89454 -24.10546 c 0,-8.71225 -7.1716,-15.880857 -15.8828,-15.880857 H 989.5 974.75 968.63281 V 64.082061 c 0,-8.712227 -7.17058,-15.882812 -15.88281,-15.882812 h -50 -8.89062 C 891.00188,43.908433 886.24422,41.00003 880.75,41.00003 Z" />
    <rect
       class="cap"
       x="967.74988"
       y="104.88174"
       width="64"
       height="64"
       rx="7"
       fill="#151b23"
       id="rect27-5"
       style="stroke:none;stroke-width:1" />
    <rect
       class="cap"
       x="967.74988"
       y="176.88174"
       width="64"
       height="64"
       rx="7"
       fill="#151b23"
       id="rect28-3"
       style="stroke:none;stroke-width:1" />
    <rect
       class="cap"
       x="967.74988"
       y="248.88174"
       width="64"
       height="64"
       rx="7"
       fill="#151b23"
       id="rect29-5"
       style="stroke:none;stroke-width:1" />
    <rect
       class="cap"
       x="895.74988"
       y="57.08149"
       width="64"
       height="64"
       rx="7"
       fill="#151b23"
       id="rect30-6"
       style="stroke:none;stroke-width:1" />
    <rect
       class="cap"
       x="895.74988"
       y="129.08148"
       width="64"
       height="64"
       rx="7"
       fill="#151b23"
       id="rect31-2"
       style="stroke:none;stroke-width:1" />
    <rect
       class="cap"
       x="895.74988"
       y="201.08148"
       width="64"
       height="64"
       rx="7"
       fill="#151b23"
       id="rect32-9"
       style="stroke:none;stroke-width:1" />
    <rect
       class="cap"
       x="823.74988"
       y="49.881489"
       width="64"
       height="64"
       rx="7"
       fill="#151b23"
       id="rect33-12"
       style="stroke:none;stroke-width:1" />
    <rect
       class="cap"
       x="823.74988"
       y="121.88148"
       width="64"
       height="64"
       rx="7"
       fill="#151b23"
       id="rect34-7"
       style="stroke:none;stroke-width:1" />
    <rect
       class="cap"
       x="823.74988"
       y="193.88148"
       width="64"
       height="64"
       rx="7"
       fill="#151b23"
       id="rect35-0"
       style="stroke:none;stroke-width:1" />
    <rect
       class="cap"
       x="751.74988"
       y="63.581482"
       width="64"
       height="64"
       rx="7"
       fill="#151b23"
       id="rect36-9"
       style="stroke:none;stroke-width:1" />
    <rect
       class="cap"
       x="751.74988"
       y="135.58148"
       width="64"
       height="64"
       rx="7"
       fill="#151b23"
       id="rect37-3"
       style="stroke:none;stroke-width:1" />
    <rect
       class="cap"
       x="793.71375"
       y="279.58148"
       width="64"
       height="64"
       rx="7"
       fill="#151b23"
       id="rect38-6-60"
       style="stroke:none;stroke-width:1" />
    <rect
       class="cap"
       x="586.30927"
       y="500.91336"
       width="64"
       height="64"
       rx="7"
       fill="#151b23"
       id="rect38-6-2-6"
       style="stroke:none;stroke-width:1"
       transform="rotate(-17.298435)" />
    <rect
       class="cap"
       x="377.75986"
       y="616.16071"
       width="64"
       height="64"
       rx="7"
       fill="#151b23"
       id="rect38-6-2-3-2"
       style="stroke:none;stroke-width:1"
       transform="rotate(-30)" />
    <rect
       class="cap"
       x="377.75986"
       y="544.16071"
       width="64"
       height="64"
       rx="7"
       fill="#151b23"
       id="rect38-6-2-3-0-6"
       style="fill:#946cdc;fill-opacity:1;stroke:none;stroke-width:1"
       transform="rotate(-30)" />
    <rect
       class="cap"
       x="679.74988"
       y="72.881485"
       width="64"
       height="64"
       rx="7"
       fill="#151b23"
       id="rect39-1"
       style="stroke:none;stroke-width:1" />
    <rect
       class="cap"
       x="679.74988"
       y="144.88148"
       width="64"
       height="64"
       rx="7"
       fill="#151b23"
       id="rect40-8"
       style="stroke:none;stroke-width:1" />
    <rect
       class="cap"
       x="751.74988"
       y="207.58148"
       width="64"
       height="64"
       rx="7"
       fill="#151b23"
       id="rect38-7"
       style="stroke:none;stroke-width:1" />
    <rect
       class="cap"
       x="679.74988"
       y="216.88148"
       width="64"
       height="64"
       rx="7"
       fill="#151b23"
       id="rect41-9"
       style="stroke:none;stroke-width:1" />
    <path
       id="rect36-4-8-3-20"
       style="fill:#347d39;stroke:none;stroke-width:1.44055"
       class="cap"
       d="m 603.18738,72.881483 h 53.125 c 4.12037,0 7.4375,3.317125 7.4375,7.4375 V 190.44398 c 0,4.12038 -3.31713,7.4375 -7.4375,7.4375 h -53.125 c -4.12038,0 -7.4375,-3.31712 -7.4375,-7.4375 V 80.318983 c 0,-4.120375 3.31712,-7.4375 7.4375,-7.4375 z" />
    <rect
       x="205.80336"
       y="-615.74988"
       width="34"
       height="20"
       rx="3"
       id="rect-usbc-right-2"
       style="fill:#478be6;fill-opacity:1;stroke:none"
       transform="rotate(90)" />
    <rect
       x="205.80336"
       y="-637.89026"
       width="24.277203"
       height="14.280707"
       rx="2.1421061"
       id="rect-usbc-right-6-3"
       style="fill:#ea5c53;fill-opacity:1;stroke:none;stroke-width:0.714035"
       transform="rotate(90)" />  </g>
</svg>
